<svg xmlns="http://www.w3.org/2000/svg" viewBox="0 0 779.93 550.27"><defs><style>.cls-1{isolation:isolate;}.cls-2,.cls-34,.cls-55{fill:none;stroke-miterlimit:10;}.cls-2{stroke:#716f82;stroke-width:7px;}.cls-3{fill:#072050;}.cls-4{fill:#747282;}.cls-5{fill:#2d2d3a;}.cls-6{fill:#fff;}.cls-7{fill:#a29fb0;}.cls-8{fill:#6e89c4;}.cls-9{fill:#ea5444;}.cls-10{fill:#ffc543;}.cls-11{fill:#a2cc3b;}.cls-12{fill:#313d6e;}.cls-13{fill:#678c6e;}.cls-14{fill:#c5cbed;}.cls-14,.cls-42{opacity:0.55;mix-blend-mode:overlay;}.cls-15{fill:#7c4b39;}.cls-16{fill:#fcbba4;}.cls-17{fill:#ffc7b0;}.cls-18,.cls-19{fill:#081344;}.cls-19{opacity:0.2;}.cls-20{fill:#716f82;}.cls-21{fill:#b1aec1;}.cls-22{fill:#585668;}.cls-23{fill:#ddd;}.cls-24{fill:#767684;}.cls-25{fill:#1f3468;}.cls-26{fill:#aba9c4;}.cls-27{fill:#4a4960;}.cls-28{fill:#e79271;}.cls-29{fill:#a5483c;}.cls-30{fill:#84352f;}.cls-31{fill:#7f3954;}.cls-32{fill:#6e3856;}.cls-33{fill:#df7d54;}.cls-34,.cls-55{stroke:#081344;}.cls-34{stroke-linecap:round;stroke-width:1.49px;}.cls-35{fill:#1c1c2d;}.cls-36{fill:#a0523a;}.cls-37,.cls-40{fill:#25253a;}.cls-38{fill:#9f293b;}.cls-39{fill:#f14747;}.cls-40{opacity:0.32;mix-blend-mode:multiply;}.cls-41{fill:#eceef0;}.cls-42{fill:#cdd6f9;}.cls-43{fill:#fc4f42;}.cls-44{fill:#ce2d29;opacity:0.79;}.cls-45{fill:#6075b0;}.cls-46{fill:#794061;}.cls-47{fill:#072859;}.cls-48{fill:#f3885e;}.cls-49{fill:#ffbe62;}.cls-50{fill:#fbaf3d;}.cls-51{fill:#ffd72e;}.cls-52{fill:#f38154;}.cls-53{fill:#709b2c;}.cls-54{fill:#4c842f;}.cls-55{stroke-width:4.59px;}.cls-56{fill:#517f38;}.cls-57{fill:#3b6837;}.cls-58{fill:#65b15b;}.cls-59{fill:#62324a;}</style></defs><title>Asset 1</title><g class="cls-1"><g id="Layer_2" data-name="Layer 2"><g id="Layer_1-2" data-name="Layer 1"><line class="cls-2" x1="779.93" y1="534.44" y2="534.44"/><rect class="cls-3" x="600.92" y="131.34" width="66.12" height="142.22"/><path class="cls-4" d="M537.13,78.08H731.81a8.67,8.67,0,0,1,8.67,8.67v136.9a0,0,0,0,1,0,0h-212a0,0,0,0,1,0,0V86.75A8.67,8.67,0,0,1,537.13,78.08Z"/><path class="cls-4" d="M526.49,219.6h212a0,0,0,0,1,0,0v7a18.31,18.31,0,0,1-18.31,18.31H544.8a18.31,18.31,0,0,1-18.31-18.31v-7a0,0,0,0,1,0,0Z"/><path class="cls-5" d="M521,86.75V223.66l52-.83,54.46-.87,17.2-.28,55-.88,33.3-.53V86.75a8.67,8.67,0,0,0-8.67-8.66H529.72A8.67,8.67,0,0,0,521,86.75Z"/><rect class="cls-6" x="528.96" y="89.82" width="196.2" height="122.39" rx="0.8"/><path class="cls-7" d="M521.08,219.6H733a0,0,0,0,1,0,0v7a18.31,18.31,0,0,1-18.31,18.31H539.38a18.31,18.31,0,0,1-18.31-18.31v-7a0,0,0,0,1,0,0Z"/><path class="cls-7" d="M668.71,274.11H580.08a4.92,4.92,0,0,1-4.92-4.92h0a4.92,4.92,0,0,1,4.92-4.92h88.63a4.92,4.92,0,0,1,4.92,4.92h0A4.92,4.92,0,0,1,668.71,274.11Z"/><rect class="cls-8" x="535.64" y="95.65" width="179.55" height="15.42" rx="2.63" transform="translate(1250.83 206.72) rotate(180)"/><path class="cls-9" d="M701.59,103.12a3.29,3.29,0,1,0,3.29-3.37A3.33,3.33,0,0,0,701.59,103.12Z"/><ellipse class="cls-10" cx="692.89" cy="103.12" rx="3.29" ry="3.37"/><ellipse class="cls-11" cx="680.89" cy="103.12" rx="3.29" ry="3.37"/><rect class="cls-12" x="654.23" y="117.2" width="61.41" height="20.93" rx="1.58" transform="translate(1369.88 255.33) rotate(180)"/><rect class="cls-13" x="582.74" y="143.64" width="61.41" height="20.93" rx="1.58" transform="translate(1226.89 308.21) rotate(180)"/><rect class="cls-13" x="535.64" y="117.2" width="38.39" height="20.93" rx="1.58" transform="translate(1109.67 255.33) rotate(180)"/><rect class="cls-9" x="535.64" y="144.05" width="38.39" height="20.93" rx="1.58" transform="translate(1109.67 309.04) rotate(180)"/><rect class="cls-3" x="582.28" y="133.96" width="61.41" height="1.5" transform="translate(1225.97 269.42) rotate(180)"/><rect class="cls-3" x="582.28" y="128.62" width="61.41" height="1.5" transform="translate(1225.97 258.73) rotate(180)"/><rect class="cls-3" x="582.28" y="123.28" width="61.41" height="1.5" transform="translate(1225.97 248.05) rotate(180)"/><rect class="cls-3" x="582.28" y="117.93" width="61.41" height="1.5" transform="translate(1225.97 237.37) rotate(180)"/><rect class="cls-9" x="654.23" y="169.67" width="61.41" height="20.93" rx="1.58" transform="translate(1369.88 360.27) rotate(180)"/><rect class="cls-3" x="582.28" y="186.43" width="61.41" height="1.5" transform="translate(1225.97 374.36) rotate(180)"/><rect class="cls-3" x="582.28" y="181.09" width="61.41" height="1.5" transform="translate(1225.97 363.67) rotate(180)"/><rect class="cls-3" x="582.28" y="175.74" width="61.41" height="1.5" transform="translate(1225.97 352.99) rotate(180)"/><rect class="cls-3" x="582.28" y="170.4" width="61.41" height="1.5" transform="translate(1225.97 342.31) rotate(180)"/><rect class="cls-3" x="654.46" y="159.57" width="61.41" height="1.5" transform="translate(1370.34 320.65) rotate(180)"/><rect class="cls-3" x="654.46" y="154.23" width="61.41" height="1.5" transform="translate(1370.34 309.96) rotate(180)"/><rect class="cls-3" x="654.46" y="148.89" width="61.41" height="1.5" transform="translate(1370.34 299.28) rotate(180)"/><rect class="cls-3" x="654.46" y="143.55" width="61.41" height="1.5" transform="translate(1370.34 288.6) rotate(180)"/><polygon class="cls-14" points="561.84 78.09 627.53 219.8 699.77 219.8 634.6 78.09 561.84 78.09"/><path class="cls-15" d="M514.24,7.55,500.67,16a22.22,22.22,0,0,0-8.1,29,32.28,32.28,0,0,1,1.57,3.22c-.52-.59,20.79-40.45,20.79-40.45"/><rect class="cls-16" x="537.85" y="80.93" width="30.45" height="56.44" rx="11.72" transform="translate(1106.16 218.31) rotate(180)"/><path class="cls-15" d="M494.38,48.17c-.32,2.66,12.14,7.15,12.29,10l-2,5.63c15.3-5.55,1.8,2.9,1.8,2.93,4.55,13.48,3,20.93,15.94,26.06a47.51,47.51,0,0,0,21,3.2c9.92-.69,18.73,2.41,25.93-1a15.18,15.18,0,0,0,4.23-3,49.13,49.13,0,0,0,6.7-8.33c.73-1.2,1.44-2.39,2.09-3.65,3.91-7.55,11.92-29.74,11.27-38.85-1.8-25.7-26.42-42.91-54.77-41-.73.05-1.44.06-2.17.1a47.85,47.85,0,0,0-36.38,21c-.42.63-.84,1.27-1.24,1.92v0C496.7,26.92,495.46,43,495.46,43A29.38,29.38,0,0,0,494.38,48.17Z"/><path class="cls-17" d="M495.52,56.39l.35,7.06.61,11.7.95,4.15c.09,1.84,1,11.53,1.35,13.28,3.23,16.56,14.1,20.08,31,22.17a11.32,11.32,0,0,0,1.53.15,37.62,37.62,0,0,0,10.78-.53,38.16,38.16,0,0,0,9.61-3.09.06.06,0,0,0,0,0,39.66,39.66,0,0,0,17.56-16.33,38.12,38.12,0,0,0,5-17.83c0-.44,0-.88,0-1.34a12.44,12.44,0,0,0-.05-1.6v-.27l0-1.27L574,69.29l-.56-11.49,0-.11v0l-.11-2.13-.08-1.66-.08-1.53,0-.39a30.85,30.85,0,0,0-1.48-7.66,35.64,35.64,0,0,0-1.89-5,7.6,7.6,0,0,0-.31-.73,34.73,34.73,0,0,0-2-3.87v0a39.28,39.28,0,0,0-11.18-12c-.9-.65-1.84-1.26-2.78-1.82A40.35,40.35,0,0,0,531,15.3c-6.78.36-11.8,2.39-17.26,5.68a39.36,39.36,0,0,0-8.87,7.26,37.86,37.86,0,0,0-7.81,13.84,8.94,8.94,0,0,0-.27.88,28.54,28.54,0,0,0-1.09,5.21A47.69,47.69,0,0,0,495.52,56.39Z"/><path class="cls-15" d="M509.76,21.42c-8.27,22.8,13.52,20.94,14.53,31.41a101.12,101.12,0,0,1,.85,11.49l1.66,5.37a3.93,3.93,0,0,0,7.7-1.11v-.11l-.19-8.54,4.25,11.26a64.57,64.57,0,0,0,30.5,34.46s26.58-15.81,26.58-51.89a78.21,78.21,0,0,0-.52-9,59.08,59.08,0,0,0-1.42-7.87c-11-44.84-66.1-29.54-71.4-27.55C516.73,11.45,509.76,21.42,509.76,21.42Z"/><path class="cls-17" d="M490.83,80.56c0,.07,0,.59,0,.59.07,2.47,2.21,4.43,7.5,4.27l-.74-19.25C493.3,72.72,491.22,76.53,490.83,80.56Z"/><path class="cls-15" d="M493.71,57.25h11.77A2.49,2.49,0,0,0,508,54.77h0a2.5,2.5,0,0,0-2.49-2.49H493.71a2.5,2.5,0,0,0-2.49,2.49h0A2.49,2.49,0,0,0,493.71,57.25Z"/><path class="cls-18" d="M500.33,66.12h0a1.78,1.78,0,0,0,1.77-1.78V61.73A1.78,1.78,0,0,0,500.33,60h0a1.78,1.78,0,0,0-1.78,1.78v2.61A1.78,1.78,0,0,0,500.33,66.12Z"/><path class="cls-19" d="M552.13,92.86a64.62,64.62,0,0,0,16.93,12.79s26.58-15.81,26.58-51.89a78.21,78.21,0,0,0-.52-9,59.08,59.08,0,0,0-1.42-7.87c-1.17,6.86-4.27,17.26-12.18,30.12C569.48,86.58,556.42,91.66,552.13,92.86Z"/><path class="cls-15" d="M498.43,91.39l.35,13.47c0,11.49,13.61,16.1,23.71,15l16.09-1.74L537,104.18,532.57,77.5l7.09-19.94-14.61,6.07v0c1.11,15.84-10.24,28.64-26.1,27.91Z"/><path class="cls-16" d="M535.47,57.07a2.94,2.94,0,0,0-2.93,3l.07,10,.07,8.75,3.45,0a4.53,4.53,0,0,0,.74,0,11.3,11.3,0,0,0,10.27-11.23,10.4,10.4,0,0,0-3.3-7.5,10.7,10.7,0,0,0-7-2.92h0a5.43,5.43,0,0,0-.9,0Z"/><rect class="cls-18" x="546.25" y="350.31" width="92.6" height="17.07"/><line class="cls-12" x1="670.43" y1="509.58" x2="670.43" y2="516.13"/><rect class="cls-20" x="199.95" y="351.75" width="84.82" height="17.07"/><rect class="cls-20" x="194.31" y="293.69" width="19.29" height="240.46" transform="translate(407.91 827.84) rotate(180)"/><rect class="cls-21" x="271.78" y="292.25" width="19.29" height="241.9" transform="translate(562.84 826.4) rotate(180)"/><rect class="cls-20" x="271.78" y="282.49" width="19.29" height="103.21" transform="translate(562.84 668.18) rotate(180)"/><rect class="cls-20" x="662.62" y="351.75" width="84.82" height="17.07"/><rect class="cls-20" x="656.97" y="293.69" width="19.29" height="240.46" transform="translate(1333.24 827.84) rotate(180)"/><rect class="cls-20" x="734.44" y="292.25" width="19.29" height="241.9" transform="translate(1488.18 826.4) rotate(180)"/><rect class="cls-22" x="333.12" y="132.17" width="63.67" height="136.95" transform="translate(729.91 401.29) rotate(180)"/><path class="cls-23" d="M265.4,88H474.7a0,0,0,0,1,0,0V215.79a8.35,8.35,0,0,1-8.35,8.35H273.75a8.35,8.35,0,0,1-8.35-8.35V88a0,0,0,0,1,0,0Z" transform="translate(740.1 312.1) rotate(180)"/><path class="cls-23" d="M285.05,220.24H459a17.63,17.63,0,0,1,17.63,17.63v6.75a0,0,0,0,1,0,0H267.42a0,0,0,0,1,0,0v-6.75A17.63,17.63,0,0,1,285.05,220.24Z" transform="translate(744.1 464.86) rotate(180)"/><path class="cls-24" d="M272.61,96.3V224.15H481.92V96.3A8.34,8.34,0,0,0,473.57,88H281A8.34,8.34,0,0,0,272.61,96.3Z"/><path class="cls-25" d="M280.23,96V212.36a.78.78,0,0,0,.78.77H473.53a.78.78,0,0,0,.77-.77V96a.77.77,0,0,0-.77-.77H281A.77.77,0,0,0,280.23,96Z"/><path class="cls-26" d="M272.63,220.24V227a17.64,17.64,0,0,0,17.64,17.64h174A17.63,17.63,0,0,0,481.89,227v-6.75Z"/><rect class="cls-8" x="398.04" y="109.63" width="65.03" height="2.25" transform="translate(861.1 221.52) rotate(180)"/><rect class="cls-23" x="339.05" y="109.63" width="30.79" height="2.25" transform="translate(708.89 221.52) rotate(180)"/><rect class="cls-10" x="294.6" y="109.63" width="30.79" height="2.25" transform="translate(619.99 221.52) rotate(180)"/><rect class="cls-8" x="329.03" y="109.63" width="7.28" height="2.25" transform="translate(665.34 221.52) rotate(180)"/><rect class="cls-9" x="373.41" y="109.63" width="21.58" height="2.25" transform="translate(768.39 221.52) rotate(180)"/><rect class="cls-8" x="398.04" y="167.26" width="65.03" height="2.25" transform="translate(861.1 336.76) rotate(180)"/><rect class="cls-23" x="339.05" y="167.26" width="30.79" height="2.25" transform="translate(708.89 336.76) rotate(180)"/><rect class="cls-10" x="294.6" y="167.26" width="30.79" height="2.25" transform="translate(619.99 336.76) rotate(180)"/><rect class="cls-8" x="329.03" y="167.26" width="7.28" height="2.25" transform="translate(665.34 336.76) rotate(180)"/><rect class="cls-7" x="373.41" y="167.26" width="21.58" height="2.25" transform="translate(768.39 336.76) rotate(180)"/><rect class="cls-8" x="294.6" y="148.05" width="65.03" height="2.25"/><rect class="cls-23" x="387.82" y="148.05" width="30.79" height="2.25"/><rect class="cls-10" x="432.27" y="148.05" width="30.79" height="2.25"/><rect class="cls-8" x="421.35" y="148.05" width="7.28" height="2.25"/><rect class="cls-7" x="362.67" y="148.05" width="21.58" height="2.25"/><rect class="cls-9" x="438.68" y="119.24" width="24.39" height="2.25" transform="translate(901.74 240.72) rotate(180)"/><rect class="cls-8" x="379.69" y="119.24" width="10.47" height="2.25" transform="translate(769.86 240.72) rotate(180)"/><rect class="cls-23" x="294.6" y="119.24" width="51.11" height="2.25" transform="translate(640.31 240.72) rotate(180)"/><rect class="cls-8" x="349.35" y="119.24" width="27.6" height="2.25" transform="translate(726.3 240.72) rotate(180)"/><rect class="cls-8" x="393.73" y="119.24" width="41.9" height="2.25" transform="translate(829.36 240.72) rotate(180)"/><rect class="cls-8" x="438.68" y="176.86" width="24.39" height="2.25" transform="translate(901.74 355.97) rotate(180)"/><rect class="cls-8" x="379.69" y="176.86" width="10.47" height="2.25" transform="translate(769.86 355.97) rotate(180)"/><rect class="cls-8" x="294.6" y="176.86" width="51.11" height="2.25" transform="translate(640.31 355.97) rotate(180)"/><rect class="cls-8" x="349.35" y="176.86" width="27.6" height="2.25" transform="translate(726.3 355.97) rotate(180)"/><rect class="cls-8" x="393.73" y="176.86" width="41.9" height="2.25" transform="translate(829.36 355.97) rotate(180)"/><rect class="cls-9" x="438.68" y="157.65" width="24.39" height="2.25" transform="translate(901.74 317.56) rotate(180)"/><rect class="cls-8" x="379.69" y="157.65" width="10.47" height="2.25" transform="translate(769.86 317.56) rotate(180)"/><rect class="cls-23" x="294.6" y="157.65" width="51.11" height="2.25" transform="translate(640.31 317.56) rotate(180)"/><rect class="cls-8" x="349.35" y="157.65" width="27.6" height="2.25" transform="translate(726.3 317.56) rotate(180)"/><rect class="cls-8" x="393.73" y="157.65" width="41.9" height="2.25" transform="translate(829.36 317.56) rotate(180)"/><rect class="cls-23" x="438.68" y="128.84" width="24.39" height="2.25" transform="translate(901.74 259.93) rotate(180)"/><rect class="cls-8" x="393.73" y="128.84" width="41.9" height="2.25" transform="translate(829.36 259.93) rotate(180)"/><rect class="cls-23" x="393.73" y="138.44" width="24.39" height="2.25"/><rect class="cls-8" x="421.16" y="138.44" width="41.9" height="2.25"/><rect class="cls-27" x="329.85" y="263.25" width="94.83" height="9.48" rx="4.74" transform="translate(754.53 535.98) rotate(180)"/><path class="cls-28" d="M177.82,272H446.93a0,0,0,0,1,0,0v13.91a7.62,7.62,0,0,1-7.62,7.62H185.44a7.62,7.62,0,0,1-7.62-7.62V272A0,0,0,0,1,177.82,272Z" transform="translate(624.74 565.47) rotate(180)"/><path class="cls-29" d="M256.26,279.6v13.91H774.37V279.6a7.63,7.63,0,0,0-7.62-7.63H263.88A7.63,7.63,0,0,0,256.26,279.6Z"/><path class="cls-30" d="M406.17,272c4.11,6.7,9,14.69,13.2,21.54H546.13L544.4,272Z"/><rect class="cls-31" x="17.75" y="367.31" width="133.14" height="166.84"/><rect class="cls-32" x="67.23" y="367.31" width="130.85" height="166.84"/><rect class="cls-33" x="75.44" y="379.8" width="124.12" height="45.14"/><rect class="cls-33" x="75.44" y="432.77" width="124.12" height="45.14"/><rect class="cls-33" x="75.44" y="485.73" width="124.12" height="48.42"/><path class="cls-6" d="M160.07,404.79H129a2.43,2.43,0,0,1-2.42-2.42h0A2.43,2.43,0,0,1,129,400h31a2.43,2.43,0,0,1,2.42,2.42h0A2.43,2.43,0,0,1,160.07,404.79Z"/><path class="cls-6" d="M161.28,457.38h-31a2.43,2.43,0,0,1-2.42-2.42h0a2.43,2.43,0,0,1,2.42-2.42h31A2.43,2.43,0,0,1,163.7,455h0A2.43,2.43,0,0,1,161.28,457.38Z"/><path class="cls-6" d="M161.28,510h-31a2.43,2.43,0,0,1-2.42-2.42h0a2.43,2.43,0,0,1,2.42-2.42h31a2.43,2.43,0,0,1,2.42,2.42h0A2.43,2.43,0,0,1,161.28,510Z"/><path class="cls-31" d="M501.65,544.35l-62.19.66a6.71,6.71,0,0,1-6.79-6.64h0a6.71,6.71,0,0,1,4.44-6.39l30.66-11.06,33.64.46Z"/><path class="cls-18" d="M438.23,546.75l63-.2,0-4.51-67.47.22h0A4.5,4.5,0,0,0,438.23,546.75Z"/><line class="cls-34" x1="468.56" y1="530.01" x2="461.23" y2="522.23"/><line class="cls-34" x1="463.21" y1="532.29" x2="455.88" y2="524.5"/><line class="cls-34" x1="458.1" y1="535.32" x2="449.85" y2="526.5"/><path class="cls-35" d="M503.77,523.92c-3.61-60.67-2.63-116.75,2.09-128.11,4.85-7.06,42.63-22.34,80.39-24l-17.67-38.58c-49.53,2.49-84.93,21.07-97.31,42.31-5.23,9-9.77,27.05-7.32,88.91,1.28,32.4,2.86,57.78,2.86,57.78Z"/><path class="cls-36" d="M446.28,545.9l-62.2.43a6.72,6.72,0,0,1-6.76-6.67h0a6.71,6.71,0,0,1,4.46-6.37l30.7-10.95,33.64.59Z"/><path class="cls-18" d="M382.85,548.06l64,0v-4.52l-68.47,0h0A4.51,4.51,0,0,0,382.85,548.06Z"/><line class="cls-34" x1="413.23" y1="531.44" x2="405.93" y2="523.63"/><line class="cls-34" x1="407.88" y1="533.69" x2="400.58" y2="525.88"/><line class="cls-34" x1="402.75" y1="536.71" x2="394.54" y2="527.85"/><path class="cls-35" d="M448.52,523.92c-3.61-60.67-2.64-116.75,2.09-128.11,4.85-7.06,42.63-22.34,80.39-24l-17.67-38.58c-49.53,2.49-84.93,21.07-97.32,42.31-5.22,9-9.76,27.05-7.31,88.91,1.28,32.4,2.86,57.78,2.86,57.78Z"/><path class="cls-35" d="M501.74,344.34a28.1,28.1,0,0,0,28.09,28.08H577a26.77,26.77,0,0,0,4.13-.32,27.24,27.24,0,0,0,9.64-3.3c.52-.28,1-.6,1.53-.92a28.06,28.06,0,0,0,12.78-23.54l-.87-15-101.68-.88Z"/><path class="cls-16" d="M469.31,264.34,445,260.45a3.27,3.27,0,0,1-2.71-3.74h0A3.28,3.28,0,0,1,446,254l24.34,3.89a3.29,3.29,0,0,1,2.71,3.75h0A3.27,3.27,0,0,1,469.31,264.34Z"/><path class="cls-16" d="M461.57,270.92,442,267.8a3.27,3.27,0,0,1-2.71-3.75h0a3.27,3.27,0,0,1,3.74-2.71l19.54,3.12a3.27,3.27,0,0,1,2.71,3.75h0A3.27,3.27,0,0,1,461.57,270.92Z"/><path class="cls-16" d="M466.08,279.45,443,275.76a3.28,3.28,0,0,1-2.71-3.75h0A3.27,3.27,0,0,1,444,269.3L467.12,273a3.29,3.29,0,0,1,2.71,3.75h0A3.27,3.27,0,0,1,466.08,279.45Z"/><path class="cls-16" d="M458.81,258.05c.26,0,3.25,0,6.48-.06a35.17,35.17,0,0,1,16.12,3.61l9.6,4.72s-5.5,16.31-6.26,16.45c-18.5,3.34-24.84-5.06-24.84-5.06Z"/><rect class="cls-6" x="473.13" y="257.99" width="8.21" height="26.69" transform="translate(954.48 542.67) rotate(180)"/><path class="cls-35" d="M535.17,287.58a49.88,49.88,0,0,0,45.2-28.91l.4-.87,25.35-77.39L574.9,170.18,550.2,245.6a17,17,0,0,1-15.2,9.12l-53.84-.53L480.84,287l53.84.54Z"/><path class="cls-16" d="M359.5,255.67a20.37,20.37,0,0,1,8.72-8.35l.09,0a35.2,35.2,0,0,1,16.13-3.56l10.69.2s2.71,23.2,2.57,22.45c-.27-1.51-26.14-1.12-38-.87a3.31,3.31,0,0,1-3-4.94Z"/><rect class="cls-6" x="391.4" y="242.18" width="10.2" height="27.34" transform="translate(793.01 511.69) rotate(180)"/><path class="cls-37" d="M451.54,272.64a49.88,49.88,0,0,0,45.21-28.9l36.49-79L503.42,151l-36.5,79a16.87,16.87,0,0,1-15.54,9.83l-53.84-.53-.33,32.85,53.84.53Z"/><path class="cls-37" d="M493,180.21l.61,69,.77,87.81s1.9,2.12,7.54,5.08c4.9,2.58,12.59,5.81,24.32,8.85,13.67,3.55,32.91,4.1,49.36,3.69,18.14-.44,32.86-2,32.86-2l-.38-172.35a49.28,49.28,0,0,0-40.66-48.49,50.28,50.28,0,0,0-8.56-.72H542.25A49.23,49.23,0,0,0,493,180.21Z"/><rect class="cls-21" x="553.2" y="406.5" width="16.61" height="95.37"/><path class="cls-20" d="M569.81,411.88v20.87l-16.61-6.06V412.56C557.35,412.37,565.35,412.06,569.81,411.88Z"/><path class="cls-5" d="M510.39,414.74h99.48a9.3,9.3,0,0,0,9.27-9.27h0a9.3,9.3,0,0,0-9.27-9.27H510.39a9.3,9.3,0,0,0-9.27,9.27h0A9.3,9.3,0,0,0,510.39,414.74Z"/><path class="cls-5" d="M491.09,532.66h10.39c0-11.7,10.1-21.23,22.52-21.23h75.72c12.42,0,22.52,9.53,22.52,21.23h10.39c0-17.11-14.76-31-32.91-31H524C505.85,501.64,491.09,515.55,491.09,532.66Z"/><rect class="cls-5" x="549.49" y="486.94" width="24.25" height="14.93" transform="translate(1123.23 988.81) rotate(180)"/><ellipse class="cls-18" cx="627.83" cy="542.13" rx="8.63" ry="8.14"/><path class="cls-3" d="M615.38,528.23H639a0,0,0,0,1,0,0v2.15a11,11,0,0,1-11,11h-1.57a11,11,0,0,1-11-11v-2.15A0,0,0,0,1,615.38,528.23Z" transform="translate(1254.39 1069.65) rotate(180)"/><ellipse class="cls-18" cx="495.8" cy="542.13" rx="8.63" ry="8.14"/><path class="cls-3" d="M483.35,528.23H507a0,0,0,0,1,0,0v2.15a11,11,0,0,1-11,11h-1.57a11,11,0,0,1-11-11v-2.15A0,0,0,0,1,483.35,528.23Z" transform="translate(990.32 1069.65) rotate(180)"/><rect class="cls-5" x="554.25" y="504.67" width="13.76" height="29.39" transform="translate(1122.25 1038.73) rotate(180)"/><ellipse class="cls-18" cx="560.83" cy="542.13" rx="8.63" ry="8.14"/><path class="cls-3" d="M548.38,528.23H572a0,0,0,0,1,0,0v2.15a11,11,0,0,1-11,11h-1.57a11,11,0,0,1-11-11v-2.15A0,0,0,0,1,548.38,528.23Z" transform="translate(1120.4 1069.65) rotate(180)"/><path class="cls-38" d="M693.78,227.05,671.53,387.66a20.23,20.23,0,0,1-19.4,17.45l-81.2.93,45.15-202,57.63,0A20.22,20.22,0,0,1,693.78,227.05Z"/><rect class="cls-39" x="457.56" y="371.04" width="147.87" height="34.99" rx="17.5" transform="translate(1062.98 777.08) rotate(180)"/><path class="cls-35" d="M581.52,175c2.18,31.66-4,145.85-5.89,179.57,18.14-.44,32.86-2,32.86-2l-.38-172.35a49.28,49.28,0,0,0-40.66-48.49S578.94,137.73,581.52,175Z"/><polygon class="cls-6" points="524.93 133.98 575.7 133.98 575.7 119.79 524.93 125.79 524.93 133.98"/><path class="cls-39" d="M606.88,383.94l23.59-164.72c1-7.34-4.46-14.15-12.24-15.14h0c-7.79-1-15,4.2-16.07,11.54L578.58,380.33c-1.05,7.34,4.45,14.16,12.24,15.15h0C598.6,396.47,602.63,402,606.88,383.94Z"/><path class="cls-35" d="M493.64,249.17l.77,87.81s1.9,2.12,7.54,5.08l11.69-132.33S502.93,236.51,493.64,249.17Z"/><path class="cls-40" d="M272.93,187.77l5.81,32.47L282.82,243a17.51,17.51,0,0,0,7.45,1.65h55c-5.22-5.4-14-14.47-23.41-24.39-14.69-15.44-31-32.93-38.26-41.81Z"/><path class="cls-23" d="M303.16,271.73H194.3a9.61,9.61,0,0,1-1.37-2.91l-24.36-87.93a6.57,6.57,0,0,1,6.33-8.33h95.78a6.6,6.6,0,0,1,6.34,4.81Z"/><path class="cls-7" d="M173.77,177.76l24.34,87.84a9.43,9.43,0,0,0,9.1,6.92H309.35l-27.24-98.28a6.56,6.56,0,0,0-6.32-4.81H180.1A6.57,6.57,0,0,0,173.77,177.76Z"/><path class="cls-25" d="M179.15,181.62,199,253.25l4.17,15H304.54l-4.16-15-20.8-74.88a6.08,6.08,0,0,0-5.87-4.45H185A6.08,6.08,0,0,0,179.15,181.62Z"/><polygon class="cls-41" points="238.84 183.66 270.03 183.66 269.33 181.47 238.14 181.47 238.84 183.66"/><polygon class="cls-9" points="210.55 183.66 225.31 183.66 224.62 181.47 209.85 181.47 210.55 183.66"/><polygon class="cls-7" points="189.23 183.66 204 183.66 203.3 181.47 188.53 181.47 189.23 183.66"/><polygon class="cls-8" points="205.74 183.66 209.23 183.66 208.54 181.47 205.05 181.47 205.74 183.66"/><polygon class="cls-7" points="227.03 183.66 237.38 183.66 236.68 181.47 226.33 181.47 227.03 183.66"/><polygon class="cls-23" points="260.56 221.08 245.79 221.08 245.09 218.89 259.86 218.89 260.56 221.08"/><polygon class="cls-10" points="281.88 221.08 267.11 221.08 266.42 218.89 281.18 218.89 281.88 221.08"/><polygon class="cls-8" points="265.36 221.08 261.87 221.08 261.18 218.89 264.67 218.89 265.36 221.08"/><polygon class="cls-9" points="261.29 193.01 272.99 193.01 272.29 190.82 260.6 190.82 261.29 193.01"/><polygon class="cls-8" points="233 193.01 238.02 193.01 237.33 190.82 232.31 190.82 233 193.01"/><polygon class="cls-9" points="192.19 193.01 216.7 193.01 216.01 190.82 191.5 190.82 192.19 193.01"/><polygon class="cls-8" points="218.45 193.01 231.69 193.01 231 190.82 217.75 190.82 218.45 193.01"/><polygon class="cls-8" points="239.73 193.01 259.83 193.01 259.14 190.82 239.04 190.82 239.73 193.01"/><polygon class="cls-12" points="279.07 249.15 290.76 249.15 290.07 246.95 278.37 246.95 279.07 249.15"/><polygon class="cls-23" points="264.26 202.37 275.95 202.37 275.26 200.18 263.56 200.18 264.26 202.37"/><polygon class="cls-23" points="245.17 202.37 256.86 202.37 256.17 200.18 244.47 200.18 245.17 202.37"/><polygon class="cls-8" points="198.4 202.37 218.5 202.37 217.8 200.18 197.71 200.18 198.4 202.37"/><polygon class="cls-8" points="278.91 211.72 258.82 211.72 258.12 209.53 278.22 209.53 278.91 211.72"/><polygon class="cls-7" points="197.71 253.25 201.99 268.25 305.87 268.25 301.6 253.25 197.71 253.25"/><path class="cls-7" d="M253.65,272.75H378.08a5.3,5.3,0,0,0,5.29-5.28h0a5.3,5.3,0,0,0-5.29-5.29H253.65a5.3,5.3,0,0,0-5.28,5.29h0A5.3,5.3,0,0,0,253.65,272.75Z"/><polygon class="cls-42" points="204.73 169.43 206.78 173.92 243 253.25 246.74 261.43 285.87 261.43 282.13 253.25 245.91 173.92 243.86 169.43 204.73 169.43"/><polygon class="cls-42" points="319.82 95.27 373.65 213.13 431.21 213.13 377.38 95.27 319.82 95.27"/><path class="cls-23" d="M206.48,272.43h72a5.3,5.3,0,0,0,5.29-5.29h0a5.3,5.3,0,0,0-5.29-5.29h-72a5.3,5.3,0,0,0-5.28,5.29h0A5.3,5.3,0,0,0,206.48,272.43Z"/><rect class="cls-18" x="232.36" y="265.36" width="10.29" height="3.09" transform="translate(475.01 533.8) rotate(180)"/><rect class="cls-18" x="245.74" y="265.36" width="7.46" height="3.09" transform="translate(498.93 533.8) rotate(180)"/><path class="cls-43" d="M307.83,229.59v43.09h36V229.59a3.45,3.45,0,0,0-3.44-3.44H311.27A3.44,3.44,0,0,0,307.83,229.59Z"/><path class="cls-9" d="M343.37,265.3c.47-.27,11.52-6.74,12.51-18.07a10.38,10.38,0,0,0-2.7-8.49c-3.95-4.08-10.53-3.85-11.26-3.81l.29,5.26c1.33-.06,5.26.21,7.2,2.23a5.24,5.24,0,0,1,1.22,4.35c-.75,8.63-9.79,13.91-9.88,14Z"/><path class="cls-9" d="M324.65,272.68h19.17V229.59a3.45,3.45,0,0,0-3.44-3.44h-1.16c-.05,2.25-.67,19.43-5.5,31.81C329.53,268.74,325.79,271.92,324.65,272.68Z"/><path class="cls-44" d="M353.18,238.74c-2.81-2.9-6.94-3.62-9.36-3.79v-5.36a3.45,3.45,0,0,0-3.44-3.44h-1.16c-.05,2.25-.67,19.44-5.5,31.81-4.19,10.78-7.93,14-9.07,14.72h19.17V265c2.14-1.33,11.18-7.6,12.06-17.8A10.4,10.4,0,0,0,353.18,238.74Zm-2.55,8c-.47,5.34-4.09,9.4-6.81,11.71V240.25c1.74.16,4.18.72,5.58,2.16A5.27,5.27,0,0,1,350.63,246.76Z"/><rect class="cls-45" x="719.46" y="191.85" width="4.14" height="57.14" transform="translate(1470.43 311.73) rotate(169.96)"/><rect class="cls-45" x="714.49" y="190.75" width="6.42" height="17.18" transform="translate(1459.15 270.56) rotate(169.96)"/><polygon class="cls-46" points="731.27 256.1 735.39 255.75 730.62 198.81 728.12 195.17 726.49 199.16 731.27 256.1"/><polygon class="cls-47" points="737 259.01 741.07 259.8 751.98 203.71 750.58 199.53 747.92 202.92 737 259.01"/><polygon class="cls-48" points="727.87 272.05 745.56 272.05 751.36 225.21 722.06 225.21 727.87 272.05"/><polygon class="cls-49" points="721.19 272.05 738.89 272.05 741.5 225.21 715.39 225.21 721.19 272.05"/><path class="cls-39" d="M174.91,342.65v25.78h-90a12.89,12.89,0,1,1,0-25.78Z"/><path class="cls-44" d="M154.75,359.87v8.56H84.87a12.91,12.91,0,0,1-12.14-8.56Z"/><path class="cls-38" d="M194.16,342.64v25.79h-59a12.9,12.9,0,1,1,0-25.79Z"/><path class="cls-6" d="M194.16,347.06V363.6H138.6a8.27,8.27,0,1,1,0-16.54Z"/><path class="cls-50" d="M176.65,291.4v25.79h-90a12.9,12.9,0,1,1,0-25.79Z"/><path class="cls-51" d="M156.24,300v-8.56H86.36A12.92,12.92,0,0,0,74.21,300Z"/><path class="cls-52" d="M194.16,291.4v25.79h-59a12.9,12.9,0,1,1,0-25.79Z"/><path class="cls-6" d="M194.16,295.82v16.53H138.6a8.27,8.27,0,1,1,0-16.53Z"/><path class="cls-11" d="M181.3,317.34v25.79h-90a12.9,12.9,0,0,1-11.38-19,13.32,13.32,0,0,1,2.26-3.06,12.87,12.87,0,0,1,9.12-3.77Z"/><path class="cls-53" d="M178.92,317.34v6.83h-99a13.32,13.32,0,0,1,2.26-3.06,12.87,12.87,0,0,1,9.12-3.77Z"/><path class="cls-53" d="M178.92,343.14V336.3h-99a13.17,13.17,0,0,0,2.26,3.07,12.92,12.92,0,0,0,9.12,3.77Z"/><path class="cls-54" d="M204.86,317.34v25.78h-54a12.89,12.89,0,1,1,0-25.78Z"/><path class="cls-6" d="M204.86,321.76v16.53H154.31a8.27,8.27,0,1,1,0-16.53Z"/><path class="cls-18" d="M167.41,165.93h0a10.93,10.93,0,0,0-.83-15.84l-.54-.47a11.94,11.94,0,0,0-16.43.81h0a10.92,10.92,0,0,0,.83,15.83l.54.47A12,12,0,0,0,167.41,165.93Z"/><path class="cls-33" d="M158.26,188.22l11.33,9.87,32.18-34.32-11.33-9.86a24.72,24.72,0,0,0-27.85-3,23.84,23.84,0,0,0-6.05,4.66,22.53,22.53,0,0,0,1.72,32.65Z"/><path class="cls-10" d="M168.5,177.31l11.33,9.86,21.94-23.4-11.33-9.86a24.72,24.72,0,0,0-27.85-3,22.18,22.18,0,0,0-2,10.41A22.75,22.75,0,0,0,168.5,177.31Z"/><path class="cls-7" d="M169,198c3.42,3.06,13.52-2,22.56-11.41s13.61-19.43,10.19-22.49c-2.7-2.42-9.58.27-16.82,6.12a66,66,0,0,0-5.73,5.29,61.14,61.14,0,0,0-5.77,6.87C168.4,189.32,166.42,195.64,169,198Z"/><path class="cls-6" d="M173.44,182.33a8.83,8.83,0,0,0,10.68,1.74,8.12,8.12,0,0,0,3.24-11.28,8.22,8.22,0,0,0-2.42-2.62,66,66,0,0,0-5.73,5.29A61.14,61.14,0,0,0,173.44,182.33Z"/><polyline class="cls-55" points="110.19 276.89 80.81 182.08 140.29 142.46 152.78 153.07"/><path class="cls-18" d="M133.76,143a7.32,7.32,0,1,0,7.32-7A7.19,7.19,0,0,0,133.76,143Z"/><path class="cls-12" d="M137.42,143a3.66,3.66,0,1,0,3.66-3.52A3.6,3.6,0,0,0,137.42,143Z"/><path class="cls-12" d="M80.62,291.71h75.67a15,15,0,0,0-15-15H95.65a15,15,0,0,0-15,15Z"/><rect class="cls-18" x="127.03" y="272.92" width="13.65" height="4.13" transform="translate(267.72 549.98) rotate(180)"/><ellipse class="cls-18" cx="81.4" cy="183.05" rx="10.24" ry="9.87"/><ellipse class="cls-12" cx="81.4" cy="183.05" rx="5.12" ry="4.93"/><path class="cls-56" d="M15.7,297.31c11.1,15.11,33.36,17.62,33.36,17.62s4.27-22-6.83-37.11S8.87,260.2,8.87,260.2,4.6,282.2,15.7,297.31Z"/><path class="cls-57" d="M62.3,288.27c-10.17,10-9.62,27.09-9.62,27.09s17.05.8,27.23-9.23,9.61-27.08,9.61-27.08S72.47,278.24,62.3,288.27Z"/><path class="cls-58" d="M37.09,280.69C35,299.32,49.7,316.24,49.7,316.24s18-13.29,20.11-31.92-12.62-35.56-12.62-35.56S39.15,262.05,37.09,280.69Z"/><polygon class="cls-59" points="38.46 367.73 77.08 367.73 89.74 311.39 25.8 311.39 38.46 367.73"/><polygon class="cls-36" points="23.9 367.73 62.52 367.73 68.22 311.39 11.24 311.39 23.9 367.73"/></g></g></g></svg>