<svg xmlns="http://www.w3.org/2000/svg" xmlns:xlink="http://www.w3.org/1999/xlink" viewBox="0 0 98.86 114.85"><defs><style>.cls-1{fill:#e1e2e3;}.cls-2{fill:#f0af17;}.cls-3{fill:#241d19;}.cls-4{fill:#231f20;}.cls-5{fill:#414042;}.cls-6{fill:url(#linear-gradient);}.cls-7{fill:#111380;}.cls-8{fill:url(#linear-gradient-2);}.cls-9{fill:url(#linear-gradient-3);}.cls-10{fill:url(#linear-gradient-4);}.cls-11{fill:url(#linear-gradient-5);}.cls-12{fill:url(#linear-gradient-6);}.cls-13{fill:url(#linear-gradient-7);}.cls-14{fill:url(#linear-gradient-8);}.cls-15{fill:url(#linear-gradient-9);}.cls-16{fill:#808285;}.cls-17{fill:#bcbec0;}.cls-18{fill:#d1d3d4;}.cls-19{fill:#e6e7e8;}.cls-20{fill:#f1f2f2;}.cls-21,.cls-32{fill:#fff;}.cls-22{fill:#3eb5ff;}.cls-23{fill:#ebc4a5;}.cls-24{fill:#f5d4b3;}.cls-25{fill:#a7a9ac;}.cls-26{fill:url(#linear-gradient-10);}.cls-27{fill:#d6d6d6;}.cls-28{fill:#ffde17;}.cls-29{fill:#b87951;}.cls-30{fill:#a96c45;}.cls-31{fill:#2b3990;}.cls-32{opacity:0.7;}.cls-33{fill:#ffcd19;}.cls-34{fill:url(#linear-gradient-11);}.cls-35{fill:url(#linear-gradient-12);}.cls-36{fill:url(#linear-gradient-13);}.cls-37{fill:#ffe252;}.cls-38{fill:url(#linear-gradient-14);}.cls-39{fill:#8eb7ff;}.cls-40{fill:url(#linear-gradient-15);}.cls-41{fill:url(#linear-gradient-16);}.cls-42{fill:url(#linear-gradient-17);}.cls-43{fill:url(#linear-gradient-18);}.cls-44{fill:url(#linear-gradient-19);}.cls-45{fill:url(#linear-gradient-20);}.cls-46{fill:url(#linear-gradient-21);}.cls-47{fill:url(#linear-gradient-22);}.cls-48{fill:url(#linear-gradient-23);}.cls-49{fill:url(#linear-gradient-24);}.cls-50{fill:url(#linear-gradient-25);}.cls-51{fill:url(#linear-gradient-26);}.cls-52{fill:url(#linear-gradient-27);}.cls-53{fill:url(#linear-gradient-28);}.cls-54{fill:#2b231f;}</style><linearGradient id="linear-gradient" x1="69.63" y1="-40.11" x2="47.22" y2="-53.05" gradientTransform="matrix(1, -0.58, 1, 0.58, 61.04, 157.55)" gradientUnits="userSpaceOnUse"><stop offset="0" stop-color="#111380"/><stop offset="1" stop-color="#2368ce"/></linearGradient><linearGradient id="linear-gradient-2" x1="77.29" y1="105" x2="69.38" y2="100.43" gradientTransform="matrix(1, 0, 0, 1, 0, 0)" xlink:href="#linear-gradient"/><linearGradient id="linear-gradient-3" x1="69.39" y1="103.08" x2="59.57" y2="97.41" gradientTransform="matrix(1, 0, 0, 1, 0, 0)" xlink:href="#linear-gradient"/><linearGradient id="linear-gradient-4" x1="69.16" y1="95.37" x2="58.65" y2="89.3" gradientTransform="matrix(1, 0, 0, 1, 0, 0)" xlink:href="#linear-gradient"/><linearGradient id="linear-gradient-5" x1="90.47" y1="102.58" x2="76.67" y2="94.61" gradientTransform="matrix(1, 0, 0, 1, 0, 0)" xlink:href="#linear-gradient"/><linearGradient id="linear-gradient-6" x1="81.54" y1="91.33" x2="78.76" y2="89.72" gradientTransform="matrix(1, 0, 0, 1, 0, 0)" xlink:href="#linear-gradient"/><linearGradient id="linear-gradient-7" x1="79.18" y1="88.78" x2="66.92" y2="81.69" gradientTransform="matrix(1, 0, 0, 1, 0, 0)" xlink:href="#linear-gradient"/><linearGradient id="linear-gradient-8" x1="81.37" y1="86.7" x2="67.94" y2="63.45" gradientUnits="userSpaceOnUse"><stop offset="0" stop-color="#111380"/><stop offset="1" stop-color="#1e53ba"/></linearGradient><linearGradient id="linear-gradient-9" x1="74.07" y1="82.94" x2="74.07" y2="61.99" gradientUnits="userSpaceOnUse"><stop offset="0" stop-color="#14238f"/><stop offset="1" stop-color="#215ec5"/></linearGradient><linearGradient id="linear-gradient-10" x1="27.62" y1="55.96" x2="34.01" y2="62.35" gradientUnits="userSpaceOnUse"><stop offset="0" stop-color="#277de1"/><stop offset="1" stop-color="#111380"/></linearGradient><linearGradient id="linear-gradient-11" x1="430.51" y1="82.05" x2="430.51" y2="41.67" gradientTransform="matrix(-1, 0, 0, 1, 514.09, 0)" gradientUnits="userSpaceOnUse"><stop offset="0" stop-color="#111380"/><stop offset="1" stop-color="#277de1"/></linearGradient><linearGradient id="linear-gradient-12" x1="427.77" y1="62.16" x2="427.77" y2="29.03" gradientTransform="matrix(-1, 0.58, 0, 1, 514.09, -228.77)" xlink:href="#linear-gradient-11"/><linearGradient id="linear-gradient-13" x1="426.97" y1="62.79" x2="426.97" y2="31.82" gradientTransform="matrix(-1, 0.58, 0, 1, 514.09, -228.77)" xlink:href="#linear-gradient"/><linearGradient id="linear-gradient-14" x1="32.6" y1="-110.6" x2="39.22" y2="-110.6" gradientTransform="matrix(1, -0.58, 0, 1, 0, 150.96)" gradientUnits="userSpaceOnUse"><stop offset="0" stop-color="#ff82a8"/><stop offset="0.23" stop-color="#ff93a5"/><stop offset="1" stop-color="#ffcc9b"/></linearGradient><linearGradient id="linear-gradient-15" x1="51.26" y1="-113.61" x2="53.88" y2="-113.61" xlink:href="#linear-gradient-14"/><linearGradient id="linear-gradient-16" x1="49.26" y1="-112.77" x2="55.88" y2="-112.77" xlink:href="#linear-gradient-14"/><linearGradient id="linear-gradient-17" x1="49.26" y1="-111.92" x2="55.88" y2="-111.92" xlink:href="#linear-gradient-14"/><linearGradient id="linear-gradient-18" x1="49.26" y1="-111.08" x2="55.88" y2="-111.08" xlink:href="#linear-gradient-14"/><linearGradient id="linear-gradient-19" x1="49.26" y1="-110.24" x2="52.02" y2="-110.24" xlink:href="#linear-gradient-14"/><linearGradient id="linear-gradient-20" x1="49.26" y1="-108.56" x2="55.88" y2="-108.56" xlink:href="#linear-gradient-14"/><linearGradient id="linear-gradient-21" x1="50.64" y1="-107.72" x2="54.51" y2="-107.72" xlink:href="#linear-gradient-14"/><linearGradient id="linear-gradient-22" x1="49.26" y1="-106.03" x2="55.88" y2="-106.03" xlink:href="#linear-gradient-14"/><linearGradient id="linear-gradient-23" x1="49.26" y1="-105.19" x2="55.88" y2="-105.19" xlink:href="#linear-gradient-14"/><linearGradient id="linear-gradient-24" x1="49.26" y1="-104.35" x2="55.88" y2="-104.35" xlink:href="#linear-gradient-14"/><linearGradient id="linear-gradient-25" x1="32.54" y1="-106.5" x2="34.98" y2="-106.5" xlink:href="#linear-gradient-14"/><linearGradient id="linear-gradient-26" x1="32.54" y1="-105.65" x2="39.16" y2="-105.65" xlink:href="#linear-gradient-14"/><linearGradient id="linear-gradient-27" x1="32.54" y1="-104.8" x2="34.01" y2="-104.8" xlink:href="#linear-gradient-14"/><linearGradient id="linear-gradient-28" x1="49.26" y1="-99.99" x2="55.88" y2="-99.99" xlink:href="#linear-gradient-14"/></defs><title>Asset 1</title><g id="Layer_2" data-name="Layer 2"><g id="Слой_1" data-name="Слой 1"><path class="cls-1" d="M56.67,83.92l.14-.09a4.61,4.61,0,0,1,4.35.21l4.59,2.65h.94V88h0c.09,1.71-3.48,2.56-5.53,1.38l-4.35-2.86a1.66,1.66,0,0,1-.94-1.22h0L56,84Z"/><path class="cls-2" d="M56.81,85.25l4.35,2.86a5.08,5.08,0,0,0,4.59,0h0a2,2,0,0,0,0-3.34,35.81,35.81,0,0,0-4.84-2.32,4.85,4.85,0,0,0-4.16.25A1.46,1.46,0,0,0,56.81,85.25Z"/><path class="cls-1" d="M44.3,91.27a1.7,1.7,0,0,1,.14-.1,4.61,4.61,0,0,1,4.35.22L53.38,94h.94V95.3h0c.09,1.7-3.47,2.56-5.53,1.38l-4.35-2.86a1.66,1.66,0,0,1-.94-1.23h0l.17-1.25Z"/><path class="cls-2" d="M44.44,92.59l4.35,2.86a5.08,5.08,0,0,0,4.59,0h0a1.94,1.94,0,0,0,0-3.33,35.81,35.81,0,0,0-4.84-2.32,4.85,4.85,0,0,0-4.16.25A1.45,1.45,0,0,0,44.44,92.59Z"/><path class="cls-3" d="M66.42,85.18a1.67,1.67,0,0,1-.91,1.72,5.17,5.17,0,0,1-4.69,0,1.66,1.66,0,0,1-1-1.36c0-.79-.1-5.48-.21-10.32h7C66.58,79.6,66.46,84,66.42,85.18Z"/><path class="cls-4" d="M82.2,89.27l1-.6-1.31-.77h0a1.26,1.26,0,0,0-1.12.17,3.25,3.25,0,0,0-1.57,2.47.9.9,0,0,0,.29.73h0l.08,0,.1.07,1.1.64.14-.92A3.45,3.45,0,0,0,82.2,89.27Z"/><path class="cls-5" d="M83.54,89.47A3.23,3.23,0,0,1,82,91.94c-.86.5-1.56.2-1.56-.66A3.26,3.26,0,0,1,82,88.81C82.84,88.31,83.54,88.61,83.54,89.47Z"/><path class="cls-4" d="M82.82,89.89A1.74,1.74,0,0,1,82,91.22c-.46.27-.84.11-.84-.35A1.77,1.77,0,0,1,82,89.53C82.44,89.26,82.82,89.42,82.82,89.89Z"/><rect class="cls-4" x="75.1" y="107.99" width="2.12" height="3.08"/><path class="cls-4" d="M60.2,91.39l-1-.49L60.41,90h0a1.29,1.29,0,0,1,1.13.05,3.27,3.27,0,0,1,1.83,2.28,1,1,0,0,1-.21.76h0l-.07,0a.39.39,0,0,1-.1.08L62,94l-.25-.9A3.46,3.46,0,0,1,60.2,91.39Z"/><path class="cls-5" d="M58.89,91.75A3.25,3.25,0,0,0,60.72,94c.91.4,1.58,0,1.48-.83a3.27,3.27,0,0,0-1.83-2.28C59.46,90.52,58.79,90.89,58.89,91.75Z"/><path class="cls-4" d="M59.65,92.08a1.75,1.75,0,0,0,1,1.23c.49.22.85,0,.8-.45a1.74,1.74,0,0,0-1-1.23C60,91.41,59.6,91.61,59.65,92.08Z"/><path class="cls-6" d="M76.48,93.68,92,97.39a6.74,6.74,0,0,1-.41,1.44l-15.8-2.76L77.49,107c-.82.11-1.66.19-2.5.23L71.68,96.45l-14.8,5.61a10.49,10.49,0,0,1-1.16-1.28L69.78,94.3l-11-5.24c.27-.18.56-.36.86-.53s.59-.34.91-.49l12.19,4.54,8.11-6.31a22.63,22.63,0,0,1,2.21.67Z"/><path class="cls-4" d="M60.18,103l1-.6-1.31-.77h0a1.26,1.26,0,0,0-1.12.17,3.25,3.25,0,0,0-1.57,2.47.9.9,0,0,0,.29.73s1.27.76,1.28.76l.14-.92A3.45,3.45,0,0,0,60.18,103Z"/><path class="cls-5" d="M61.52,103.23A3.23,3.23,0,0,1,60,105.7c-.86.5-1.56.2-1.56-.66A3.26,3.26,0,0,1,60,102.57C60.82,102.07,61.52,102.37,61.52,103.23Z"/><path class="cls-4" d="M60.8,103.65A1.74,1.74,0,0,1,60,105c-.46.27-.84.11-.84-.36a1.77,1.77,0,0,1,.84-1.33C60.42,103,60.8,103.18,60.8,103.65Z"/><path class="cls-4" d="M88.71,100.08l-1-.49,1.21-.91h0a1.23,1.23,0,0,1,1.13,0A3.2,3.2,0,0,1,91.87,101a.94.94,0,0,1-.2.77l-1.18.89-.25-.9A3.46,3.46,0,0,1,88.71,100.08Z"/><path class="cls-5" d="M87.4,100.43a3.22,3.22,0,0,0,1.83,2.28c.91.4,1.57,0,1.48-.83a3.27,3.27,0,0,0-1.83-2.28C88,99.2,87.3,99.57,87.4,100.43Z"/><path class="cls-4" d="M88.16,100.76a1.75,1.75,0,0,0,1,1.24c.49.21.85,0,.8-.45a1.77,1.77,0,0,0-1-1.24C88.46,100.1,88.11,100.3,88.16,100.76Z"/><polygon class="cls-7" points="77.49 107 77.49 108.75 74.99 108.98 74.99 107.23 77.49 107"/><polygon class="cls-8" points="71.68 96.45 71.68 99.1 74.99 108.98 74.99 107.23 71.68 96.45"/><polygon class="cls-9" points="56.88 102.06 56.88 103.81 71.68 99.1 71.68 96.45 56.88 102.06"/><polygon class="cls-7" points="55.73 100.78 55.73 102.53 56.88 103.81 56.88 102.06 55.73 100.78"/><polygon class="cls-10" points="58.8 89.06 58.8 90.81 67.41 95.39 69.78 94.3 58.8 89.06"/><polygon class="cls-11" points="91.63 98.83 91.63 100.58 76.24 98.78 75.83 96.07 91.63 98.83"/><path class="cls-7" d="M92,97.39v1.75a7.18,7.18,0,0,1-.41,1.44V98.83Z"/><polygon class="cls-12" points="83.07 86.94 83.07 88.69 78.19 94.09 76.48 93.68 83.07 86.94"/><path class="cls-13" d="M70.51,75.48v19h0a1.28,1.28,0,0,0,.77,1.07,4,4,0,0,0,3.71,0,1.3,1.3,0,0,0,.77-1.07v-19Z"/><path class="cls-14" d="M90.68,80.8A14.16,14.16,0,0,1,89,82.2a16.93,16.93,0,0,1-1.47.94,24.3,24.3,0,0,1-11.77,3.12,21.82,21.82,0,0,1-5.26-.6,17.05,17.05,0,0,1-4.38-1.74L66,83.83l-.79-.5L65,83.22l-8.6-7.17a2.3,2.3,0,0,1-1.23-2s0,0,0,0a6.67,6.67,0,0,1,1-3.73l.07-.11,1,1.32,10.39-6a8.82,8.82,0,0,1,7.65-.34l12.43,5,0,0,.35.18.78.41h0a12.19,12.19,0,0,1,1.81,1.27,8.23,8.23,0,0,1,.73.71c.11-.84.25-1.46.46-1.11,0,0,0,0,0,0a12.58,12.58,0,0,1,1,3.91h0C93.13,77.33,92.36,79.14,90.68,80.8Z"/><path class="cls-15" d="M90.68,77a12.16,12.16,0,0,1-2.61,2.28c-.33.22-.69.45-1.06.66a23.31,23.31,0,0,1-11.25,3,20.48,20.48,0,0,1-5.26-.63,16,16,0,0,1-4.07-1.63l-.14-.08-.76-.48L65.37,80,57.1,73.12a2,2,0,0,1-.93-2.8l.07-.11a3.88,3.88,0,0,1,1.45-1.34L67.84,63a8.52,8.52,0,0,1,7.36-.34l12,4.77,0,0,.88.46.21.11h0a10.24,10.24,0,0,1,2.38,1.82,5.66,5.66,0,0,1,1.19,1.78s0,0,0,0C92.59,73.42,92.13,75.27,90.68,77Z"/><path class="cls-4" d="M89.33,79.11s-.9,2.4-1.9,2.94a16.59,16.59,0,0,1-1.86.88h0l-.93-.67s.62-.43.62-.93l1.2-.65Z"/><path class="cls-5" d="M85.57,82.93h0l-.93-.67s.62-.43.62-.93l1.59-.87A3.75,3.75,0,0,1,85.57,82.93Z"/><path class="cls-3" d="M83.54,76.35c-1.34,1.33-7.6,3.63-11,4.43s-8.3-3.33-10-5a25.51,25.51,0,0,0-6.23-4.35c-1.52-.56-1.85.56-1.85,1.29,0,2.73-.39,17.37-.46,19.72a1.65,1.65,0,0,1-.91,1.72,3.51,3.51,0,0,1-.59.26,5.2,5.2,0,0,1-4.1-.26,1.65,1.65,0,0,1-1-1.35c0-1.55-.4-17.91-.4-21.31,0-.16,0-.31,0-.47.22-3.29,2.69-7,6.54-7.59s6.51-1.52,9-.5a23.07,23.07,0,0,1,.75,2.31l20.18,7.14S84.87,75,83.54,76.35Z"/><path class="cls-16" d="M90.68,80.8v2.37L89,82.2A14.16,14.16,0,0,0,90.68,80.8Z"/><path class="cls-17" d="M90.68,42.53V76.8A14.16,14.16,0,0,1,89,78.2l-.93-.53V41l.38.22Z"/><polygon class="cls-17" points="2.61 56.47 2.61 96.76 5.22 95.25 5.22 54.97 2.61 56.47"/><path class="cls-18" d="M93.29,38.44V81.67l-2.61,1.5V80.8c1.68-1.66,2.45-3.47,2.18-5.22h0a12.58,12.58,0,0,0-1-3.91s0,0,0,0a5.66,5.66,0,0,0-1.19-1.78V42.53l-2.23-1.29Z"/><polygon class="cls-18" points="90.68 43.95 88.07 45.46 37.18 74.85 37.18 113.34 34.57 114.85 34.57 72.35 88.07 41.45 88.45 41.24 90.68 42.53 90.68 43.95"/><polygon class="cls-19" points="0 54.97 0 95.25 2.61 96.76 2.61 56.47 0 54.97"/><polygon class="cls-19" points="34.57 72.35 34.57 76.35 0 56.4 0 52.39 58.73 22.48 86.31 38.18 34.57 72.35"/><polygon class="cls-20" points="93.29 38.44 88.45 41.24 88.07 41.45 34.57 72.35 5.22 55.4 4.84 55.19 0 52.39 58.73 18.49 93.29 38.44"/><polygon class="cls-19" points="31.96 73.42 31.96 113.34 34.57 114.85 34.57 74.92 31.96 73.42"/><path class="cls-18" d="M62.21,35.17c-2.09,0-2.93-1-3.89-2.2A9.24,9.24,0,0,0,55,30.19c-3.89-1.89-12.66,1.91-12.75,1.95a.39.39,0,0,1-.5-.19.39.39,0,0,1,.2-.5c.37-.16,9.18-4,13.38-1.93a9.87,9.87,0,0,1,3.54,3c.91,1.12,1.58,1.93,3.31,1.93a12.58,12.58,0,0,0,4.4-1.17c1.9-.76,3.7-1.48,5.24-.73A.37.37,0,0,1,72,33a.38.38,0,0,1-.5.18c-1.25-.61-2.89,0-4.64.74A12.89,12.89,0,0,1,62.21,35.17Z"/><path class="cls-21" d="M57.28,1.18,55.45.08v0a.58.58,0,0,0-.7,0L21.47,19.34a1.78,1.78,0,0,0-.88,1.37V42.48a.46.46,0,0,0,.2.41h0L22.62,44l.11-1.89,32-18.48a1.82,1.82,0,0,0,.87-1.38V2.61Z"/><path class="cls-17" d="M41,40.87s-2.8-1.62-4.21-2.5-1.39-2.4-1.39-4.54l7.59-4s-.6,3.71.69,4.46c1.07.62,4.32,2,4.32,2v.57Z"/><path class="cls-18" d="M41,40.3s-2.28-1.22-3.69-2.1-1.53-2.41-1.53-4.55L43,29.28s-.68,3.9.61,4.65S48,36.28,48,36.28Z"/><path class="cls-19" d="M57.46,23.37a1.81,1.81,0,0,1-.87,1.38L23.31,44c-.48.28-.87.11-.87-.37V21.82a1.81,1.81,0,0,1,.87-1.37L56.59,1.24c.48-.28.87-.11.87.37Z"/><path class="cls-22" d="M56.82,22.48A1.73,1.73,0,0,1,56,23.8L23.92,42.31c-.47.27-.84.11-.84-.35V23.16a1.73,1.73,0,0,1,.84-1.33L56,3.32c.47-.27.84-.11.84.36Z"/><polygon class="cls-18" points="69.78 43.08 42.9 58.59 31 51.72 31 51.09 57.88 36.21 69.78 42.44 69.78 43.08"/><polygon class="cls-19" points="69.78 42.44 42.9 57.96 31 51.09 57.88 35.57 69.78 42.44"/><polygon class="cls-21" points="42.13 47.05 33.89 51.8 32.81 51.18 41.05 46.42 42.13 47.05"/><polygon class="cls-21" points="57.35 48.01 42.33 56.68 34.52 52.17 49.54 43.5 57.35 48.01"/><polygon class="cls-21" points="48.91 43.13 43.51 46.25 42.43 45.62 47.82 42.51 48.91 43.13"/><polygon class="cls-21" points="59.08 37.26 54.86 39.7 53.77 39.07 58 36.63 59.08 37.26"/><polygon class="cls-21" points="67.64 42.2 63.42 44.64 55.49 40.06 59.72 37.63 67.64 42.2"/><polygon class="cls-21" points="54.18 40.09 49.96 42.53 48.88 41.9 53.1 39.46 54.18 40.09"/><polygon class="cls-21" points="62.63 44.96 58.4 47.4 57.32 46.77 61.54 44.34 62.63 44.96"/><polygon class="cls-21" points="60.18 45.12 58.68 45.99 57.6 45.36 59.1 44.5 60.18 45.12"/><polygon class="cls-21" points="57.69 42.11 53.47 44.55 50.59 42.89 54.81 40.45 57.69 42.11"/><path class="cls-23" d="M75.65,41.4,74.2,45s-3.11-2-4.13-2.58c-.85-.48-1.6-1.2-2-1.07a5.75,5.75,0,0,1-3.06.22c-.68-.34.36-.73.36-.73a5.51,5.51,0,0,1-1.27,0C62.92,40.49,64,40,64,40c-.38,0-1-.23-.79-.7.11-.28.56-.37.89-.49a.71.71,0,0,1-.35-.15c-.27-.24,0-.66.39-.78s3.09-.26,4.06-.39a1.94,1.94,0,0,1,.68,0h0l.25.08a4.13,4.13,0,0,1,.69.31,8.87,8.87,0,0,1,.94.55l.13.09A16.37,16.37,0,0,1,73,40.22l2.15.94Z"/><path class="cls-24" d="M73,40.22a16.31,16.31,0,0,0-2.19-1.75,8.87,8.87,0,0,0-.94-.55,4.13,4.13,0,0,0-.69-.31l-.25-.08h0a1.94,1.94,0,0,0-.68,0c-1,.13-3.52.25-4.06.39s-.66.54-.39.78c0-.07-.13-.28.17-.39a26.15,26.15,0,0,1,4.55-.3c.78.29,1.45,1.13,1.11,1.46s-3.07-1.29-3.44,0c-.17.6,2.28,1.39,2.79,1.66a4.45,4.45,0,0,0,3.17.89,12.5,12.5,0,0,0,2.32.74c.35,0,.39-.58.73-1.51Z"/><path class="cls-16" d="M83.32,36a.63.63,0,0,1,0,1.2l-6.89,4a2.31,2.31,0,0,1-2.08,0l-6.89-4a.63.63,0,0,1,0-1.2l6.89-4a2.31,2.31,0,0,1,2.08,0Z"/><path class="cls-25" d="M37.33,60.48v.06l-8-4.6a1.06,1.06,0,0,0-.92,0l-3.72,2.15V58h-.39v.42h0a.34.34,0,0,0,.19.28l8.11,4.68a1.06,1.06,0,0,0,.92,0l3.92-2.26a.36.36,0,0,0,.19-.26h0v-.42Z"/><path class="cls-17" d="M37.48,60.21c.25.15.25.39,0,.53L33.56,63a1,1,0,0,1-.92,0l-8.11-4.68c-.25-.14-.25-.38,0-.53l3.92-2.26a1,1,0,0,1,.92,0Z"/><polygon class="cls-26" points="36.47 59.89 32.08 62.42 25.15 58.42 29.55 55.89 36.47 59.89"/><path class="cls-24" d="M52.53,55.89l-1.61,2.7a6.72,6.72,0,0,0-1.7-.58c-1-.21-2-1.45-2.37-1.66-1-.64-2.81-1.1-2.81-1.63a.13.13,0,0,1,0-.06c0-.41.48-.42.57-.4-1.08-.71-1.3-.89-1.18-1.39a.19.19,0,0,1,.05-.1c.14-.22.53-.1.73,0l-.07,0,0,0c-.28-.17-.72-.51-.55-.88a.4.4,0,0,1,.11-.14h0c.31-.29,1,0,1.33.21l.25.15a.33.33,0,0,1,0-.47s0,0,0,0a.61.61,0,0,1,.55-.2A26,26,0,0,1,50,53.1a2.47,2.47,0,0,1,.47.37h0A24.11,24.11,0,0,1,52.53,55.89Z"/><path class="cls-23" d="M52.53,55.89l-1.61,2.7a6.72,6.72,0,0,0-1.7-.58c-1-.21-2-1.45-2.37-1.66-1-.64-2.81-1.1-2.81-1.63a.13.13,0,0,1,0-.06c.09.28,2.19.85,2.6,1.19,1.42,1.17,3.15,1.77,4.46.46s-.23-2.44-.61-2.83A24.11,24.11,0,0,1,52.53,55.89Z"/><path class="cls-27" d="M85,42.21a18.06,18.06,0,0,0-.49-3A12.79,12.79,0,0,1,85,42.21Z"/><path class="cls-28" d="M85.08,48.3c0,1.72-.1,3.76-.24,5.89a1.91,1.91,0,0,1-.25,1.16,4.25,4.25,0,0,1-1.34,1.47s.18,14.14.2,15.44c-2.87,2.35-8.32,4.89-11.91,3.95C69,75.54,67,73,65.62,70.83a47,47,0,0,1-3-7.16c.09-2.91.39-10.39.44-13.29a46.08,46.08,0,0,1,.68-7.23c.64-3.58.69-3.46,3.19-5.73C68.72,35.91,69,36.18,69,36.18l6.24-2.24.3-.1.4,0h0l.54.12c.23.05.48.11.78.2v-.44a5.07,5.07,0,0,1,.58-.08,4.29,4.29,0,0,1,3.84.67h0C85.48,37.15,85.16,43.93,85.08,48.3Z"/><path class="cls-21" d="M77.13,34s2,1.33,1,2.82-3.85,2.32-6.24,1.91c-2.13-.37-4.72-1.29-5-1.29s2-1.88,2-1.88Z"/><path class="cls-24" d="M65.53,29.88a3.7,3.7,0,0,0,.41.7c1.81,2.34,5.27,2.46,7.42,1.87.89-.24,1-2.7.91-5.49-.18-4-.91-8.66-.91-8.66l-8.86.61S64.18,26.79,65.53,29.88Z"/><path class="cls-23" d="M72.27,28.07h0l2-1.1c0,.82,0,1.61,0,2.31,0,.17,0,.34,0,.49s0,.15,0,.22c0,.32-.06.6-.1.87h0l3.1-1v5.28A2.27,2.27,0,0,1,76.05,37a7.08,7.08,0,0,1-5.84,0c-1.39-.7-1.21-1.65-1.21-1.65V32.5h0A7.29,7.29,0,0,1,67.72,32a4.33,4.33,0,0,1-2.19-2.17C69.38,32.05,72.27,28.07,72.27,28.07Z"/><path class="cls-29" d="M63.56,18.41c.94.87,2,1.21,2.79,2.15,1.54,1.94-.23,4.61,1,4.8s1-3.71,3.25-2.23c.6.4,1.16,1.84,1.16,3.55a11.38,11.38,0,0,0,.82,4.17c.66,1.18,4.17,2.73,6,.88a13.46,13.46,0,0,0,2.63-3.8.08.08,0,0,0,0,0,13.61,13.61,0,0,0,1-3.07c.86-4.2.09-8.37-1.3-10.13-3.09-4-8.29-4.4-12.25-3-2.61.93-3.5-.35-4-.45a.31.31,0,0,0-.19,0A4.64,4.64,0,0,0,63.56,18.41Z"/><path class="cls-30" d="M63.56,18.41c.94.87,2,1.21,2.79,2.15A3.21,3.21,0,0,1,67,22.12a.08.08,0,0,1,0,0,4.87,4.87,0,0,1,0,1.08v.05c0,.14,0,.29,0,.42-.1.89-.2,1.56.38,1.65s.7-.4,1-1c.09-.19.18-.39.28-.58l.07-.15s0,0,0-.05a1.6,1.6,0,0,1,.61-.71.45.45,0,0,1,.22-.08h0a1.35,1.35,0,0,1,1.07.31c.6.4,1.16,1.84,1.16,3.55a11.38,11.38,0,0,0,.82,4.17c.66,1.18,4.17,2.73,6,.88A13.05,13.05,0,0,0,81,28.3a2.78,2.78,0,0,1-3.47,1.29c-2.86-.82-1.33-3.46-2.39-8.74s-6.42-3.68-8.58-4.4-2.67-3.85-1.93-5.21a.31.31,0,0,0-.19,0A4.64,4.64,0,0,0,63.56,18.41Z"/><path class="cls-28" d="M73.37,49.8C72.25,55.32,68,63.36,62.64,63.67h0A16.22,16.22,0,0,1,57,62.88a28.27,28.27,0,0,1-3.78-1.43c-1-.44-2.3-1.13-2.43-1.23h0c-.52-.38-.48-1.88-.3-2.25a3.92,3.92,0,0,1,1.6-1.88A1.34,1.34,0,0,1,53.5,56s3.3,1.82,5.3,1.82c2.7,0,3.5-.93,4.17-3.57,1-4.2.79-11.05.79-11.05A3.39,3.39,0,0,1,64,41.73c.65-1.55,2.47-1.87,4.61-.63A11,11,0,0,1,73,46.21,5.9,5.9,0,0,1,73.37,49.8Z"/><path class="cls-31" d="M63.63,20.32s0,0,0,0c.08.29,1.47.53,1.39,1.44l-.15,2.68c0,.12-.15.21-.3.26l-.07-.65a1.83,1.83,0,0,0-.76.49h0a.18.18,0,0,0,0,.08.82.82,0,0,0,.21.71c.19.19.74.15,1.15,0s.5-.6.62-2a27.4,27.4,0,0,1,2.6.95c.09-.19.18-.39.28-.58l.07-.15s0,0,0-.05a1.6,1.6,0,0,1,.61-.71l-2-.66L67,22.12l-1.18-.4a1.24,1.24,0,0,0-.4-1.11c-.16-.11-.72-.57-.92-.73l0-.57a4.07,4.07,0,0,0-.66.4A.49.49,0,0,0,63.63,20.32Z"/><path class="cls-32" d="M63.64,20.32s0,0,0,0c.09.29,1.47.53,1.39,1.44l-.15,2.68c0,.12-.15.21-.3.26s-.6.08-.83-.15v0A26,26,0,0,1,63.64,20.32Z"/><path class="cls-33" d="M85.08,48.3c0,1.72-.1,3.76-.24,5.89,0,.17,0,.37,0,.54a3.64,3.64,0,0,1-1.56,2.09s.18,14.14.2,15.44c0,0-5.77,4.73-11.32,4.06-2.82-.28-5.34-3.5-6.8-5.95a42.86,42.86,0,0,1-2.7-6.7c-.24,0-.49,0-.73,0A17.09,17.09,0,0,1,57,62.88a31.62,31.62,0,0,1-3.13-1.14c-.53-.23-1.14-.51-1.76-.82s-1-.5-1.16-.6a.85.85,0,0,1-.41-.41,2.6,2.6,0,0,1-.17-1.14,2.16,2.16,0,0,1,.12-.8s5.61,4.92,12.2,3.22a15.07,15.07,0,0,0,1.75-.54c5-1.94,6.49-9.19,8.49-14.44h0c1-2.67,2.17-4.82,4-5.5,5.43-2,5.74-4.82,4.76-6.36h0a8,8,0,0,1,2.72,4.42,17.59,17.59,0,0,1,.65,4.78S85.14,45.48,85.08,48.3Z"/><path class="cls-34" d="M71.13,73.69v0l2.11-18c.1-2.22,2.13-5.11,4.54-6.5l11.61-6.71c1.49-.86,2.84-1,3.68-.44h0l2.45,1.39-1.3,2.4L96,59.26c0,.06,0,.13,0,.18l0,.89v.16c0,6.81-5.6,14.27-12.51,18.26A16.66,16.66,0,0,1,77.3,81l-1,1s-1.91-1.2-2.57-1.58c-1.61-.92-2.62-2.69-2.62-5.53v0Z"/><path class="cls-35" d="M73.85,75.34v-.06l2.11-18a8.41,8.41,0,0,1,4.54-6.5c3.19-1.38,9-4.08,11.61-6.71,2-2,4.45-.84,4.55,1.26l2.1,15.57c.82,5.09-3.32,14.22-12.45,19.49-6.92,4-12.52,3-12.52-3.81v0Z"/><path class="cls-36" d="M75.48,75.82v0l2-16.83a7.85,7.85,0,0,1,4.24-6.07c3-1.29,8.4-3.82,10.86-6.27,1.84-1.84,4.15-.79,4.25,1.17l2,14.56a.88.88,0,0,0,0,.17l0,.83v.15c0,6.36-5.24,13.34-11.69,17.07S75.42,83.35,75.42,77v0Z"/><polygon class="cls-21" points="31.08 28 23.86 32.17 23.86 23 31.08 18.83 31.08 28"/><polygon class="cls-37" points="30.78 25.73 24.16 29.55 24.16 23.09 30.78 19.27 30.78 25.73"/><polygon class="cls-21" points="39.48 23.88 32.27 28.04 32.27 18.14 39.48 13.98 39.48 23.88"/><polygon class="cls-21" points="39.48 31.84 32.27 36.01 32.27 29.23 39.48 25.07 39.48 31.84"/><polygon class="cls-21" points="31.08 36.69 23.86 40.86 23.86 33.43 31.08 29.27 31.08 36.69"/><polygon class="cls-21" points="47.88 26.99 40.67 31.16 40.67 13.29 47.88 9.13 47.88 26.99"/><polygon class="cls-21" points="56.18 22.2 48.97 26.36 48.97 8.5 56.18 4.34 56.18 22.2"/><polygon class="cls-38" points="39.22 20.95 32.6 24.77 32.6 18.31 39.22 14.49 39.22 20.95"/><polygon class="cls-39" points="47.59 16.12 40.97 19.94 40.97 13.48 47.59 9.66 47.59 16.12"/><polygon class="cls-39" points="30.78 36.22 24.16 40.04 24.16 33.59 30.78 29.76 30.78 36.22"/><polygon class="cls-37" points="39.18 31.62 32.56 35.44 32.56 29.33 39.18 25.51 39.18 31.62"/><path class="cls-21" d="M37.08,16.42c.31-.18.84-.41,1.1-.07.38.51.64.87.65.89l-1,1.35-.24-.28v2.92l-3.26,1.88V20.19l-.24.56-1-.13s.27-.7.66-1.65A2.64,2.64,0,0,1,35,17.63c0,.55.4.59.9.3a1.68,1.68,0,0,0,.91-1.34A1.28,1.28,0,0,1,37.08,16.42Z"/><path class="cls-21" d="M29.84,34.38a10.14,10.14,0,0,1-2.05,1.78l-.42-1.46L27,36.65a5.13,5.13,0,0,1-2.05.61l.82-3.78a7.76,7.76,0,0,0,1.57-.72A10.8,10.8,0,0,0,29,31.53Z"/><path class="cls-21" d="M28.32,22.56a1.58,1.58,0,0,0-.85.24,3.13,3.13,0,0,0-.85.74,2.91,2.91,0,0,0-.71,1.71c0,.55.28.87.71.9a1.52,1.52,0,0,0,.85-.24,3.28,3.28,0,0,0,.85-.74A2.89,2.89,0,0,0,29,23.46C29,22.91,28.75,22.59,28.32,22.56ZM28,25.18a2.81,2.81,0,0,1-.54.44,1.46,1.46,0,0,1-.54.19c-.43,0-.72-.22-.72-.73a2.58,2.58,0,0,1,.95-1.77,2.11,2.11,0,0,1,.31-.21,1.59,1.59,0,0,1,.3-.14.66.66,0,0,1,1,.67A2.44,2.44,0,0,1,28,25.18Z"/><path class="cls-21" d="M27.6,24a.43.43,0,0,0-.13.05.21.21,0,0,0-.08.06l-.46-.35-.14.18.46.34a.51.51,0,0,0-.07.22c0,.17.13.22.29.13a.62.62,0,0,0,.29-.46.16.16,0,0,0,0-.11l.43-.79-.14,0Z"/><path class="cls-21" d="M28.32,22.37V20.9l-1.7,1v1.47a3.17,3.17,0,0,1,.85-.75A1.48,1.48,0,0,1,28.32,22.37Z"/><path class="cls-21" d="M26.62,26.35v1.58l1.7-1V25.37a3.28,3.28,0,0,1-.85.74A1.6,1.6,0,0,1,26.62,26.35Z"/><path class="cls-21" d="M45.56,16.45,43,17.94c-.64.37-1.16.15-1.16-.49V15A2.43,2.43,0,0,1,43,13.15l2.57-1.48c.64-.37,1.16-.15,1.16.49v2.46A2.41,2.41,0,0,1,45.56,16.45Zm-2.57-3a1.71,1.71,0,0,0-.83,1.3v2.47c0,.45.37.61.83.35l2.57-1.49a1.71,1.71,0,0,0,.83-1.31V12.35c0-.46-.37-.61-.83-.35Z"/><path class="cls-21" d="M44.28,16c-.66.38-1.19.16-1.19-.5a2.46,2.46,0,0,1,1.19-1.88c.65-.37,1.19-.15,1.19.51A2.47,2.47,0,0,1,44.28,16Zm0-2a1.76,1.76,0,0,0-.86,1.35c0,.47.38.64.86.36a1.77,1.77,0,0,0,.85-1.35C45.13,13.84,44.75,13.67,44.28,14Z"/><path class="cls-21" d="M45.88,12.44a.52.52,0,0,1-.26.41c-.14.09-.26,0-.26-.11a.55.55,0,0,1,.26-.41C45.77,12.24,45.88,12.29,45.88,12.44Z"/><path class="cls-21" d="M35.84,33.13c-1.45.83-2.63.33-2.63-1.12a5.44,5.44,0,0,1,2.63-4.14c1.46-.84,2.64-.34,2.64,1.11A5.46,5.46,0,0,1,35.84,33.13Zm0-4.6a4.1,4.1,0,0,0-2,3.1c0,1.09.88,1.46,2,.83a4.07,4.07,0,0,0,2-3.1C37.81,28.28,36.93,27.9,35.84,28.53Z"/><path class="cls-21" d="M35.11,32.47a.41.41,0,0,1-.17.05c-.1,0-.16-.08-.16-.19V29.9a.63.63,0,0,1,.16-.38.48.48,0,0,1,.33-.19h2.1a.17.17,0,0,1,.17.19.65.65,0,0,1-.17.38l-2.1,2.43Zm.33-2.38v1.28l1.1-1.28Z"/><polygon class="cls-39" points="47.59 17.2 40.97 21.03 40.97 20.59 47.59 16.77 47.59 17.2"/><polygon class="cls-40" points="53.88 6.46 51.26 7.97 51.26 7.54 53.88 6.02 53.88 6.46"/><polygon class="cls-41" points="55.88 6.15 49.27 9.97 49.27 9.53 55.88 5.71 55.88 6.15"/><polygon class="cls-42" points="55.88 6.99 49.27 10.81 49.27 10.37 55.88 6.55 55.88 6.99"/><polygon class="cls-43" points="55.88 7.83 49.27 11.65 49.27 11.21 55.88 7.39 55.88 7.83"/><polygon class="cls-44" points="52.02 10.9 49.27 12.49 49.27 12.06 52.02 10.47 52.02 10.9"/><polygon class="cls-45" points="55.88 10.36 49.27 14.18 49.27 13.74 55.88 9.92 55.88 10.36"/><polygon class="cls-46" points="54.51 11.99 50.64 14.22 50.64 13.79 54.51 11.55 54.51 11.99"/><polygon class="cls-47" points="55.88 12.88 49.27 16.7 49.27 16.26 55.88 12.44 55.88 12.88"/><polygon class="cls-48" points="55.88 13.72 49.27 17.54 49.27 17.1 55.88 13.28 55.88 13.72"/><polygon class="cls-49" points="55.88 14.56 49.27 18.39 49.27 17.95 55.88 14.12 55.88 14.56"/><polygon class="cls-39" points="47.59 18.05 40.97 21.88 40.97 21.44 47.59 17.62 47.59 18.05"/><polygon class="cls-37" points="30.79 26.9 24.17 30.72 24.17 30.29 30.79 26.46 30.79 26.9"/><polygon class="cls-37" points="27.18 29.84 24.17 31.57 24.17 31.14 27.18 29.4 27.18 29.84"/><polygon class="cls-39" points="45.36 20.19 40.97 22.73 40.97 22.29 45.36 19.75 45.36 20.19"/><polygon class="cls-50" points="34.98 24.48 32.54 25.89 32.54 25.45 34.98 24.04 34.98 24.48"/><polygon class="cls-51" points="39.16 22.92 32.54 26.74 32.54 26.3 39.16 22.48 39.16 22.92"/><polygon class="cls-52" points="34.01 26.75 32.54 27.59 32.54 27.16 34.01 26.31 34.01 26.75"/><polygon class="cls-39" points="47.59 20.61 40.97 24.43 40.97 23.99 47.59 20.17 47.59 20.61"/><polygon class="cls-39" points="47.59 21.46 40.97 25.28 40.97 24.84 47.59 21.02 47.59 21.46"/><polygon class="cls-39" points="42.91 25.01 40.97 26.13 40.97 25.69 42.91 24.57 42.91 25.01"/><polygon class="cls-39" points="47.59 24.01 40.97 27.83 40.97 27.39 47.59 23.57 47.59 24.01"/><polygon class="cls-53" points="55.88 22.03 49.27 25.85 49.27 19.2 55.88 15.38 55.88 22.03"/><path class="cls-21" d="M55.05,19.82h-.43c0-.11,0-.22,0-.32a2.66,2.66,0,0,0,0-.3l.43-.49c0-.06.06-.12,0-.15l-.66-.76s-.08,0-.13,0l-.43.5a1.35,1.35,0,0,0-.53,0v-.5s0-.06-.09,0l-1.33.76a.2.2,0,0,0-.09.15v.49a5.25,5.25,0,0,0-.53.62h-.43s-.1.05-.13.1l-.66,1.54c0,.05,0,.1,0,.1h.43c0,.11,0,.22,0,.32a2.66,2.66,0,0,0,0,.3l-.43.5c0,.05-.06.11,0,.14l.66.76s.08,0,.13,0l.43-.5a1.35,1.35,0,0,0,.53,0v.5c0,.05,0,.06.09,0l1.33-.76a.2.2,0,0,0,.09-.14v-.5a5.25,5.25,0,0,0,.53-.62h.43c.05,0,.1,0,.13-.1l.66-1.54C55.11,19.87,55.09,19.82,55.05,19.82Zm-2.47,2c-.61.35-1.1.14-1.1-.47a2.28,2.28,0,0,1,1.1-1.73c.6-.35,1.09-.14,1.09.47A2.29,2.29,0,0,1,52.58,21.79Z"/><path class="cls-54" d="M52.53,85.73v8.65a5.2,5.2,0,0,1-4.1-.26,1.65,1.65,0,0,1-1-1.35c0-1.55-.4-17.91-.4-21.31,0-.16,0-.31,0-.47C47.08,71,52.53,75.08,52.53,85.73Z"/></g></g></svg>