<svg height="512pt" viewBox="-48 0 512 512" width="512pt" xmlns="http://www.w3.org/2000/svg"><path d="m208.40625 39.078125v-32.0625h-96.1875v32.0625" fill="#ff6242"/><path d="m8.015625 55.109375h304.59375v400.78125h-304.59375zm0 0" fill="#9ee5ff"/><path d="m8.015625 55.109375h24.046875v400.78125h-24.046875zm0 0" fill="#2ac3f2"/><path d="m280.546875 359.703125v-272.53125h-240.46875v336.65625h176.34375zm0 0" fill="#e8f4fa"/><path d="m216.421875 423.828125v-72.140625h64.125v8.015625zm0 0" fill="#a7d3eb"/><path d="m40.078125 87.171875h24.046875v336.65625h-24.046875zm0 0" fill="#a7d3eb"/><path d="m240.46875 103.203125h-160.3125v-56.109375c0-4.429688 3.589844-8.015625 8.015625-8.015625h144.28125c4.425781 0 8.015625 3.585937 8.015625 8.015625zm0 0" fill="#ff866e"/><path d="m80.15625 87.171875h160.3125v16.03125h-160.3125zm0 0" fill="#ff6242"/><path d="m376.734375 479.9375 16.03125 16.03125 16.03125-16.03125v-264.515625h-32.0625zm0 0" fill="#9bb6cc"/><path d="m392.765625 215.421875h16.03125v264.515625l-16.03125 16.03125zm0 0" fill="#627b8c"/><path d="m112.21875 143.28125h96.1875v96.1875h-96.1875zm0 0" fill="#fff"/><path d="m128.25 239.46875c0-17.707031 14.355469-32.0625 32.0625-32.0625s32.0625 14.355469 32.0625 32.0625" fill="#9bb6cc"/><g fill="#fff"><path d="m120.234375 264.015625h16.03125v15.03125h-16.03125zm0 0"/><path d="m152.296875 264.015625h16.03125v15.03125h-16.03125zm0 0"/><path d="m184.359375 264.015625h16.03125v15.03125h-16.03125zm0 0"/></g><path d="m176.34375 187.367188c0 8.851562-7.175781 16.03125-16.03125 16.03125-8.851562 0-16.03125-7.179688-16.03125-16.03125 0-8.855469 7.179688-16.03125 16.03125-16.03125 8.855469 0 16.03125 7.175781 16.03125 16.03125zm0 0" fill="#fef089"/><path d="m247.484375 47.09375c0-8.566406-6.464844-15.03125-15.03125-15.03125h-17.03125v-32.0625h-111.21875v32.0625h-16.03125c-8.5625 0-16.03125 6.464844-16.03125 15.03125v33.0625h-40.078125v351.6875h187.472656l68.027344-69.027344v-18.144531h-79.15625v72.140625h-161.3125v-321.625h25.046875v16.03125h175.34375v-16.03125h25.046875v232.453125h15.03125v-247.484375h-40.078125v-17.03125h57.109375v385.75h-289.5625v-385.75h41.078125v-15.03125h-56.109375v415.8125h319.625v-415.8125h-72.140625zm-24.046875 312.609375h46.984375l-46.984375 45.984375zm-104.203125-344.671875h81.15625v17.03125h-81.15625zm113.21875 81.15625h-145.28125v-49.09375c0-.277344.726563 0 1 0h144.28125zm0 0"/><path d="m415.8125 287.5625v-79.15625h-16.03125v-17.03125h-15.03125v17.03125h-40.078125v103.203125h15.03125v-88.171875h9.015625v259.613281l16.03125 16.03125v12.917969h15.03125v-12.917969l16.03125-16.03125v-179.457031h-15.03125v129.25h-17.03125v-145.28125zm-32.0625-64.125h17.03125v49.09375h-17.03125zm17.03125 224.4375v28.949219l-8.515625 8.519531-8.515625-8.519531v-28.949219zm0 0"/><path d="m104.203125 136.265625v111.21875h111.21875v-111.21875zm32.742187 96.1875c3.183594-10.019531 12.453126-17.03125 23.367188-17.03125s20.1875 7.011719 23.367188 17.03125zm14.851563-45.085937c0-4.695313 3.820313-8.519532 8.515625-8.519532s8.515625 3.824219 8.515625 8.519532c0 4.695312-3.820313 8.515624-8.515625 8.515624s-8.515625-3.820312-8.515625-8.515624zm48.59375 45.085937h-1.226563c-2.410156-13.023437-10.722656-23.175781-21.917968-28.5 4.089844-4.234375 6.613281-10.121094 6.613281-16.460937 0-12.984376-10.5625-23.609376-23.546875-23.609376s-23.546875 10.53125-23.546875 23.515626c0 6.339843 2.527344 12.332031 6.617187 16.570312-11.195312 5.320312-19.507812 15.460938-21.921874 28.484375h-2.226563v-81.15625h81.15625zm0 0"/><path d="m88.171875 296.578125h144.28125v15.03125h-144.28125zm0 0"/><path d="m88.171875 328.640625h104.203125v15.03125h-104.203125zm0 0"/><path d="m88.171875 360.703125h104.203125v15.03125h-104.203125zm0 0"/></svg>